%TF.GenerationSoftware,KiCad,Pcbnew,10.0.4*%
%TF.CreationDate,2026-07-22T21:08:57+04:00*%
%TF.ProjectId,controller_Tv_Lift,636f6e74-726f-46c6-9c65-725f54765f4c,rev?*%
%TF.SameCoordinates,Original*%
%TF.FileFunction,Drillmap*%
%TF.FilePolarity,Positive*%
%FSLAX45Y45*%
G04 Gerber Fmt 4.5, Leading zero omitted, Abs format (unit mm)*
G04 Created by KiCad (PCBNEW 10.0.4) date 2026-07-22 21:08:57*
%MOMM*%
%LPD*%
G01*
G04 APERTURE LIST*
%ADD10C,0.100000*%
%ADD11C,0.200000*%
G04 APERTURE END LIST*
D10*
X6550000Y-2550000D02*
X13550000Y-2550000D01*
X13550000Y-18300000D01*
X6550000Y-18300000D01*
X6550000Y-2550000D01*
D11*
X6805777Y-18616484D02*
X6805777Y-18416484D01*
X6805777Y-18416484D02*
X6853396Y-18416484D01*
X6853396Y-18416484D02*
X6881967Y-18426008D01*
X6881967Y-18426008D02*
X6901015Y-18445055D01*
X6901015Y-18445055D02*
X6910539Y-18464103D01*
X6910539Y-18464103D02*
X6920062Y-18502198D01*
X6920062Y-18502198D02*
X6920062Y-18530770D01*
X6920062Y-18530770D02*
X6910539Y-18568865D01*
X6910539Y-18568865D02*
X6901015Y-18587912D01*
X6901015Y-18587912D02*
X6881967Y-18606960D01*
X6881967Y-18606960D02*
X6853396Y-18616484D01*
X6853396Y-18616484D02*
X6805777Y-18616484D01*
X7005777Y-18616484D02*
X7005777Y-18483150D01*
X7005777Y-18521246D02*
X7015301Y-18502198D01*
X7015301Y-18502198D02*
X7024824Y-18492674D01*
X7024824Y-18492674D02*
X7043872Y-18483150D01*
X7043872Y-18483150D02*
X7062920Y-18483150D01*
X7129586Y-18616484D02*
X7129586Y-18483150D01*
X7129586Y-18416484D02*
X7120062Y-18426008D01*
X7120062Y-18426008D02*
X7129586Y-18435531D01*
X7129586Y-18435531D02*
X7139110Y-18426008D01*
X7139110Y-18426008D02*
X7129586Y-18416484D01*
X7129586Y-18416484D02*
X7129586Y-18435531D01*
X7253396Y-18616484D02*
X7234348Y-18606960D01*
X7234348Y-18606960D02*
X7224824Y-18587912D01*
X7224824Y-18587912D02*
X7224824Y-18416484D01*
X7358158Y-18616484D02*
X7339110Y-18606960D01*
X7339110Y-18606960D02*
X7329586Y-18587912D01*
X7329586Y-18587912D02*
X7329586Y-18416484D01*
X7586729Y-18616484D02*
X7586729Y-18416484D01*
X7586729Y-18416484D02*
X7653396Y-18559341D01*
X7653396Y-18559341D02*
X7720062Y-18416484D01*
X7720062Y-18416484D02*
X7720062Y-18616484D01*
X7901015Y-18616484D02*
X7901015Y-18511722D01*
X7901015Y-18511722D02*
X7891491Y-18492674D01*
X7891491Y-18492674D02*
X7872443Y-18483150D01*
X7872443Y-18483150D02*
X7834348Y-18483150D01*
X7834348Y-18483150D02*
X7815301Y-18492674D01*
X7901015Y-18606960D02*
X7881967Y-18616484D01*
X7881967Y-18616484D02*
X7834348Y-18616484D01*
X7834348Y-18616484D02*
X7815301Y-18606960D01*
X7815301Y-18606960D02*
X7805777Y-18587912D01*
X7805777Y-18587912D02*
X7805777Y-18568865D01*
X7805777Y-18568865D02*
X7815301Y-18549817D01*
X7815301Y-18549817D02*
X7834348Y-18540293D01*
X7834348Y-18540293D02*
X7881967Y-18540293D01*
X7881967Y-18540293D02*
X7901015Y-18530770D01*
X7996253Y-18483150D02*
X7996253Y-18683150D01*
X7996253Y-18492674D02*
X8015301Y-18483150D01*
X8015301Y-18483150D02*
X8053396Y-18483150D01*
X8053396Y-18483150D02*
X8072443Y-18492674D01*
X8072443Y-18492674D02*
X8081967Y-18502198D01*
X8081967Y-18502198D02*
X8091491Y-18521246D01*
X8091491Y-18521246D02*
X8091491Y-18578389D01*
X8091491Y-18578389D02*
X8081967Y-18597436D01*
X8081967Y-18597436D02*
X8072443Y-18606960D01*
X8072443Y-18606960D02*
X8053396Y-18616484D01*
X8053396Y-18616484D02*
X8015301Y-18616484D01*
X8015301Y-18616484D02*
X7996253Y-18606960D01*
X8177205Y-18597436D02*
X8186729Y-18606960D01*
X8186729Y-18606960D02*
X8177205Y-18616484D01*
X8177205Y-18616484D02*
X8167682Y-18606960D01*
X8167682Y-18606960D02*
X8177205Y-18597436D01*
X8177205Y-18597436D02*
X8177205Y-18616484D01*
X8177205Y-18492674D02*
X8186729Y-18502198D01*
X8186729Y-18502198D02*
X8177205Y-18511722D01*
X8177205Y-18511722D02*
X8167682Y-18502198D01*
X8167682Y-18502198D02*
X8177205Y-18492674D01*
X8177205Y-18492674D02*
X8177205Y-18511722D01*
M02*
