%TF.GenerationSoftware,KiCad,Pcbnew,10.0.4*%
%TF.CreationDate,2026-07-22T21:08:38+04:00*%
%TF.ProjectId,controller_Tv_Lift,636f6e74-726f-46c6-9c65-725f54765f4c,rev?*%
%TF.SameCoordinates,Original*%
%TF.FileFunction,Paste,Top*%
%TF.FilePolarity,Positive*%
%FSLAX46Y46*%
G04 Gerber Fmt 4.6, Leading zero omitted, Abs format (unit mm)*
G04 Created by KiCad (PCBNEW 10.0.4) date 2026-07-22 21:08:38*
%MOMM*%
%LPD*%
G01*
G04 APERTURE LIST*
G04 Aperture macros list*
%AMRoundRect*
0 Rectangle with rounded corners*
0 $1 Rounding radius*
0 $2 $3 $4 $5 $6 $7 $8 $9 X,Y pos of 4 corners*
0 Add a 4 corners polygon primitive as box body*
4,1,4,$2,$3,$4,$5,$6,$7,$8,$9,$2,$3,0*
0 Add four circle primitives for the rounded corners*
1,1,$1+$1,$2,$3*
1,1,$1+$1,$4,$5*
1,1,$1+$1,$6,$7*
1,1,$1+$1,$8,$9*
0 Add four rect primitives between the rounded corners*
20,1,$1+$1,$2,$3,$4,$5,0*
20,1,$1+$1,$4,$5,$6,$7,0*
20,1,$1+$1,$6,$7,$8,$9,0*
20,1,$1+$1,$8,$9,$2,$3,0*%
G04 Aperture macros list end*
%ADD10RoundRect,0.250000X0.262500X0.450000X-0.262500X0.450000X-0.262500X-0.450000X0.262500X-0.450000X0*%
%ADD11RoundRect,0.250000X-0.475000X0.250000X-0.475000X-0.250000X0.475000X-0.250000X0.475000X0.250000X0*%
%ADD12RoundRect,0.250000X-0.262500X-0.450000X0.262500X-0.450000X0.262500X0.450000X-0.262500X0.450000X0*%
%ADD13RoundRect,0.250000X-2.375000X2.025000X-2.375000X-2.025000X2.375000X-2.025000X2.375000X2.025000X0*%
%ADD14RoundRect,0.250000X-0.300000X2.050000X-0.300000X-2.050000X0.300000X-2.050000X0.300000X2.050000X0*%
%ADD15RoundRect,0.250000X0.450000X-0.262500X0.450000X0.262500X-0.450000X0.262500X-0.450000X-0.262500X0*%
%ADD16R,1.350000X0.660000*%
%ADD17R,5.250000X10.300000*%
%ADD18R,5.250000X6.230000*%
%ADD19RoundRect,0.250000X0.250000X0.475000X-0.250000X0.475000X-0.250000X-0.475000X0.250000X-0.475000X0*%
%ADD20RoundRect,0.375000X-0.625000X-0.375000X0.625000X-0.375000X0.625000X0.375000X-0.625000X0.375000X0*%
%ADD21RoundRect,0.500000X-0.500000X-1.400000X0.500000X-1.400000X0.500000X1.400000X-0.500000X1.400000X0*%
%ADD22RoundRect,0.250000X-0.450000X0.262500X-0.450000X-0.262500X0.450000X-0.262500X0.450000X0.262500X0*%
%ADD23RoundRect,0.250000X0.600000X-0.400000X0.600000X0.400000X-0.600000X0.400000X-0.600000X-0.400000X0*%
%ADD24RoundRect,0.250000X-0.250000X-0.475000X0.250000X-0.475000X0.250000X0.475000X-0.250000X0.475000X0*%
%ADD25R,5.400000X2.900000*%
%ADD26RoundRect,0.250000X0.475000X-0.250000X0.475000X0.250000X-0.475000X0.250000X-0.475000X-0.250000X0*%
%ADD27RoundRect,0.150000X-0.825000X-0.150000X0.825000X-0.150000X0.825000X0.150000X-0.825000X0.150000X0*%
%ADD28R,1.500000X0.900000*%
%ADD29R,0.900000X1.500000*%
%ADD30R,1.050000X1.050000*%
%ADD31RoundRect,0.150000X0.825000X0.150000X-0.825000X0.150000X-0.825000X-0.150000X0.825000X-0.150000X0*%
G04 APERTURE END LIST*
D10*
%TO.C,R27*%
X118193924Y-160514140D03*
X116368924Y-160514140D03*
%TD*%
D11*
%TO.C,C3*%
X104952581Y-115196895D03*
X104952581Y-117096895D03*
%TD*%
D12*
%TO.C,R22*%
X120587500Y-160500000D03*
X122412500Y-160500000D03*
%TD*%
%TO.C,R10*%
X120239085Y-83486097D03*
X122064085Y-83486097D03*
%TD*%
%TO.C,R19*%
X110766285Y-92423987D03*
X112591285Y-92423987D03*
%TD*%
D13*
%TO.C,U5*%
X83925000Y-87850000D03*
X78375000Y-87850000D03*
X83925000Y-92700000D03*
X78375000Y-92700000D03*
D14*
X84550000Y-81125000D03*
X82850000Y-81125000D03*
X81150000Y-81125000D03*
X79450000Y-81125000D03*
X77750000Y-81125000D03*
%TD*%
D10*
%TO.C,R1*%
X113912500Y-171000000D03*
X112087500Y-171000000D03*
%TD*%
D15*
%TO.C,R23*%
X91500000Y-153000000D03*
X91500000Y-151175000D03*
%TD*%
D10*
%TO.C,R25*%
X95550126Y-152754377D03*
X93725126Y-152754377D03*
%TD*%
%TO.C,R26*%
X109500000Y-161500000D03*
X107675000Y-161500000D03*
%TD*%
D16*
%TO.C,U10*%
X94325000Y-40665000D03*
X94325000Y-41665000D03*
X94325000Y-42665000D03*
X94325000Y-43665000D03*
X94325000Y-44665000D03*
X94325000Y-45665000D03*
X94325000Y-46665000D03*
X94325000Y-47665000D03*
X94325000Y-48665000D03*
X94325000Y-49665000D03*
X94325000Y-50665000D03*
X94325000Y-51665000D03*
X94325000Y-52665000D03*
X94325000Y-53665000D03*
X94325000Y-54665000D03*
X112575000Y-54665000D03*
X112575000Y-53665000D03*
X112575000Y-52665000D03*
X112575000Y-51665000D03*
X112575000Y-50665000D03*
X112575000Y-49665000D03*
X112575000Y-48665000D03*
X112575000Y-47665000D03*
X112575000Y-46665000D03*
X112575000Y-45665000D03*
X112575000Y-44665000D03*
X112575000Y-43665000D03*
X112575000Y-42665000D03*
X112575000Y-41665000D03*
X112575000Y-40665000D03*
D17*
X100400000Y-47665000D03*
D18*
X106500000Y-51830000D03*
X106500000Y-43500000D03*
%TD*%
D19*
%TO.C,C9*%
X84218844Y-75116737D03*
X82318844Y-75116737D03*
%TD*%
D20*
%TO.C,U6*%
X102350000Y-66900000D03*
X102350000Y-69200000D03*
D21*
X108650000Y-69200000D03*
D20*
X102350000Y-71500000D03*
%TD*%
D22*
%TO.C,R8*%
X76000000Y-101000000D03*
X76000000Y-102825000D03*
%TD*%
%TO.C,R3*%
X78500000Y-107587500D03*
X78500000Y-109412500D03*
%TD*%
D23*
%TO.C,D4*%
X90000000Y-110250000D03*
X90000000Y-106750000D03*
%TD*%
D24*
%TO.C,C11*%
X108050000Y-172500000D03*
X109950000Y-172500000D03*
%TD*%
D10*
%TO.C,R2*%
X127912500Y-164000000D03*
X126087500Y-164000000D03*
%TD*%
D25*
%TO.C,L1*%
X73000000Y-75125000D03*
X73000000Y-65425000D03*
%TD*%
D12*
%TO.C,R18*%
X120175000Y-69833333D03*
X122000000Y-69833333D03*
%TD*%
D22*
%TO.C,R7*%
X103972070Y-103294704D03*
X103972070Y-105119704D03*
%TD*%
D12*
%TO.C,R4*%
X126087500Y-169000000D03*
X127912500Y-169000000D03*
%TD*%
D24*
%TO.C,C4*%
X108550000Y-109000000D03*
X110450000Y-109000000D03*
%TD*%
D11*
%TO.C,C1*%
X104989271Y-111403453D03*
X104989271Y-113303453D03*
%TD*%
D26*
%TO.C,C7*%
X91000000Y-115450000D03*
X91000000Y-113550000D03*
%TD*%
D12*
%TO.C,R11*%
X120239085Y-79986097D03*
X122064085Y-79986097D03*
%TD*%
D11*
%TO.C,C22*%
X100238227Y-150600000D03*
X100238227Y-152500000D03*
%TD*%
D24*
%TO.C,C14*%
X112050000Y-161500000D03*
X113950000Y-161500000D03*
%TD*%
D15*
%TO.C,R6*%
X104000000Y-100000000D03*
X104000000Y-98175000D03*
%TD*%
D27*
%TO.C,U1*%
X109050000Y-111380000D03*
X109050000Y-112650000D03*
X109050000Y-113920000D03*
X109050000Y-115190000D03*
X109050000Y-116460000D03*
X109050000Y-117730000D03*
X109050000Y-119000000D03*
X109050000Y-120270000D03*
X114000000Y-120270000D03*
X114000000Y-119000000D03*
X114000000Y-117730000D03*
X114000000Y-116460000D03*
X114000000Y-115190000D03*
X114000000Y-113920000D03*
X114000000Y-112650000D03*
X114000000Y-111380000D03*
%TD*%
D12*
%TO.C,R16*%
X120175000Y-75500000D03*
X122000000Y-75500000D03*
%TD*%
%TO.C,R12*%
X120239085Y-86986097D03*
X122064085Y-86986097D03*
%TD*%
D19*
%TO.C,C18*%
X109950000Y-167000000D03*
X108050000Y-167000000D03*
%TD*%
D10*
%TO.C,R13*%
X109574179Y-158981465D03*
X107749179Y-158981465D03*
%TD*%
D11*
%TO.C,C5*%
X105000000Y-120050000D03*
X105000000Y-121950000D03*
%TD*%
D23*
%TO.C,D5*%
X87000000Y-110250000D03*
X87000000Y-106750000D03*
%TD*%
D24*
%TO.C,C21*%
X101550000Y-35500000D03*
X103450000Y-35500000D03*
%TD*%
D26*
%TO.C,C2*%
X117500000Y-112450000D03*
X117500000Y-110550000D03*
%TD*%
D28*
%TO.C,U4*%
X104570000Y-173815000D03*
X104570000Y-172545000D03*
X104570000Y-171275000D03*
X104570000Y-170005000D03*
X104570000Y-168735000D03*
X104570000Y-167465000D03*
X104570000Y-166195000D03*
X104570000Y-164925000D03*
X104570000Y-163655000D03*
X104570000Y-162385000D03*
X104570000Y-161115000D03*
X104570000Y-159845000D03*
X104570000Y-158575000D03*
X104570000Y-157305000D03*
D29*
X101530000Y-156055000D03*
X100260000Y-156055000D03*
X98990000Y-156055000D03*
X97720000Y-156055000D03*
X96450000Y-156055000D03*
X95180000Y-156055000D03*
X93910000Y-156055000D03*
X92640000Y-156055000D03*
X91370000Y-156055000D03*
X90100000Y-156055000D03*
D28*
X87070000Y-157305000D03*
X87070000Y-158575000D03*
X87070000Y-159845000D03*
X87070000Y-161115000D03*
X87070000Y-162385000D03*
X87070000Y-163655000D03*
X87070000Y-164925000D03*
X87070000Y-166195000D03*
X87070000Y-167465000D03*
X87070000Y-168735000D03*
X87070000Y-170005000D03*
X87070000Y-171275000D03*
X87070000Y-172545000D03*
X87070000Y-173815000D03*
D30*
X98025000Y-168000000D03*
X98025000Y-166475000D03*
X98025000Y-164950000D03*
X96500000Y-168000000D03*
X96500000Y-166475000D03*
X96500000Y-164950000D03*
X94975000Y-168000000D03*
X94975000Y-166475000D03*
X94975000Y-164950000D03*
%TD*%
D12*
%TO.C,R15*%
X120175000Y-67000000D03*
X122000000Y-67000000D03*
%TD*%
D31*
%TO.C,U3*%
X86975000Y-116405000D03*
X86975000Y-115135000D03*
X86975000Y-113865000D03*
X86975000Y-112595000D03*
X82025000Y-112595000D03*
X82025000Y-113865000D03*
X82025000Y-115135000D03*
X82025000Y-116405000D03*
%TD*%
D12*
%TO.C,R14*%
X123577500Y-171520000D03*
X125402500Y-171520000D03*
%TD*%
%TO.C,R5*%
X81177667Y-157360668D03*
X83002667Y-157360668D03*
%TD*%
%TO.C,R24*%
X86587500Y-149500000D03*
X88412500Y-149500000D03*
%TD*%
D24*
%TO.C,C17*%
X112050000Y-159000000D03*
X113950000Y-159000000D03*
%TD*%
D12*
%TO.C,R17*%
X120175000Y-72666667D03*
X122000000Y-72666667D03*
%TD*%
D22*
%TO.C,R21*%
X116000000Y-155087500D03*
X116000000Y-156912500D03*
%TD*%
D26*
%TO.C,C13*%
X98807777Y-71450000D03*
X98807777Y-69550000D03*
%TD*%
D11*
%TO.C,C16*%
X112189758Y-70187020D03*
X112189758Y-72087020D03*
%TD*%
D24*
%TO.C,C19*%
X108050000Y-169500000D03*
X109950000Y-169500000D03*
%TD*%
D12*
%TO.C,R9*%
X120239085Y-90486097D03*
X122064085Y-90486097D03*
%TD*%
D11*
%TO.C,C23*%
X106500000Y-151500000D03*
X106500000Y-153400000D03*
%TD*%
M02*
