%TF.GenerationSoftware,KiCad,Pcbnew,10.0.4*%
%TF.CreationDate,2026-07-22T21:08:38+04:00*%
%TF.ProjectId,controller_Tv_Lift,636f6e74-726f-46c6-9c65-725f54765f4c,rev?*%
%TF.SameCoordinates,Original*%
%TF.FileFunction,Soldermask,Bot*%
%TF.FilePolarity,Negative*%
%FSLAX46Y46*%
G04 Gerber Fmt 4.6, Leading zero omitted, Abs format (unit mm)*
G04 Created by KiCad (PCBNEW 10.0.4) date 2026-07-22 21:08:38*
%MOMM*%
%LPD*%
G01*
G04 APERTURE LIST*
G04 Aperture macros list*
%AMRoundRect*
0 Rectangle with rounded corners*
0 $1 Rounding radius*
0 $2 $3 $4 $5 $6 $7 $8 $9 X,Y pos of 4 corners*
0 Add a 4 corners polygon primitive as box body*
4,1,4,$2,$3,$4,$5,$6,$7,$8,$9,$2,$3,0*
0 Add four circle primitives for the rounded corners*
1,1,$1+$1,$2,$3*
1,1,$1+$1,$4,$5*
1,1,$1+$1,$6,$7*
1,1,$1+$1,$8,$9*
0 Add four rect primitives between the rounded corners*
20,1,$1+$1,$2,$3,$4,$5,0*
20,1,$1+$1,$4,$5,$6,$7,0*
20,1,$1+$1,$6,$7,$8,$9,0*
20,1,$1+$1,$8,$9,$2,$3,0*%
G04 Aperture macros list end*
%ADD10R,1.700000X1.700000*%
%ADD11C,1.700000*%
%ADD12RoundRect,0.250000X1.550000X-0.650000X1.550000X0.650000X-1.550000X0.650000X-1.550000X-0.650000X0*%
%ADD13O,3.600000X1.800000*%
%ADD14R,1.800000X1.800000*%
%ADD15C,1.800000*%
%ADD16RoundRect,0.250000X-1.550000X0.650000X-1.550000X-0.650000X1.550000X-0.650000X1.550000X0.650000X0*%
%ADD17C,0.800000*%
%ADD18C,5.400000*%
%ADD19R,1.500000X1.050000*%
%ADD20O,1.500000X1.050000*%
%ADD21RoundRect,0.250000X0.550000X-0.550000X0.550000X0.550000X-0.550000X0.550000X-0.550000X-0.550000X0*%
%ADD22C,1.600000*%
%ADD23RoundRect,0.250000X-0.600000X-0.750000X0.600000X-0.750000X0.600000X0.750000X-0.600000X0.750000X0*%
%ADD24O,1.700000X2.000000*%
%ADD25RoundRect,0.250000X0.550000X0.550000X-0.550000X0.550000X-0.550000X-0.550000X0.550000X-0.550000X0*%
%ADD26RoundRect,0.248400X0.651600X-0.651600X0.651600X0.651600X-0.651600X0.651600X-0.651600X-0.651600X0*%
%ADD27RoundRect,0.250000X-0.550000X0.550000X-0.550000X-0.550000X0.550000X-0.550000X0.550000X0.550000X0*%
%ADD28RoundRect,0.250000X-1.350000X1.350000X-1.350000X-1.350000X1.350000X-1.350000X1.350000X1.350000X0*%
%ADD29C,3.200000*%
%ADD30RoundRect,0.250000X-0.550000X-0.550000X0.550000X-0.550000X0.550000X0.550000X-0.550000X0.550000X0*%
%ADD31C,2.000000*%
%ADD32C,2.400000*%
%ADD33C,2.780000*%
%ADD34RoundRect,0.249999X-0.850001X0.850001X-0.850001X-0.850001X0.850001X-0.850001X0.850001X0.850001X0*%
%ADD35C,2.200000*%
%ADD36RoundRect,0.250000X1.350000X1.350000X-1.350000X1.350000X-1.350000X-1.350000X1.350000X-1.350000X0*%
G04 APERTURE END LIST*
D10*
%TO.C,J12*%
X120500000Y-99000000D03*
D11*
X120500000Y-101540000D03*
X120500000Y-104080000D03*
%TD*%
D12*
%TO.C,J11*%
X127000000Y-105000000D03*
D13*
X127000000Y-101500000D03*
X127000000Y-98000000D03*
%TD*%
D14*
%TO.C,D3*%
X128107500Y-38305000D03*
D15*
X128107500Y-35765000D03*
%TD*%
D16*
%TO.C,J2*%
X73932500Y-52305000D03*
D13*
X73932500Y-55805000D03*
%TD*%
D17*
%TO.C,H1*%
X66975000Y-28975000D03*
X67568109Y-27543109D03*
X67568109Y-30406891D03*
X69000000Y-26950000D03*
D18*
X69000000Y-28975000D03*
D17*
X69000000Y-31000000D03*
X70431891Y-27543109D03*
X70431891Y-30406891D03*
X71025000Y-28975000D03*
%TD*%
D14*
%TO.C,LED_RED_F3_ERROR1*%
X128665000Y-173770000D03*
D15*
X128665000Y-171230000D03*
%TD*%
D19*
%TO.C,Q1*%
X121104957Y-156237411D03*
D20*
X121104957Y-154967411D03*
X121104957Y-153697411D03*
%TD*%
D12*
%TO.C,J10*%
X127067500Y-158695000D03*
D13*
X127067500Y-155195000D03*
%TD*%
D12*
%TO.C,J6*%
X127067500Y-119945000D03*
D13*
X127067500Y-116445000D03*
X127067500Y-112945000D03*
%TD*%
D12*
%TO.C,J9*%
X127000000Y-47750000D03*
D13*
X127000000Y-44250000D03*
%TD*%
D21*
%TO.C,C15*%
X115000000Y-66955113D03*
D22*
X115000000Y-64955113D03*
%TD*%
D23*
%TO.C,U9*%
X93977500Y-82737500D03*
D24*
X96517500Y-82737500D03*
X99097500Y-82737500D03*
X106677500Y-82737500D03*
X109217500Y-82737500D03*
%TD*%
D12*
%TO.C,J7*%
X126932500Y-90555000D03*
D13*
X126932500Y-87055000D03*
X126932500Y-83555000D03*
X126932500Y-80055000D03*
%TD*%
D25*
%TO.C,C12*%
X94682380Y-71500000D03*
D22*
X92182380Y-71500000D03*
%TD*%
D21*
%TO.C,C20*%
X96500000Y-34652651D03*
D22*
X96500000Y-31152651D03*
%TD*%
D25*
%TO.C,C8*%
X86682380Y-70500000D03*
D22*
X84182380Y-70500000D03*
%TD*%
D26*
%TO.C,U2*%
X131334467Y-168490936D03*
D15*
X131334467Y-165950936D03*
X131334467Y-163410936D03*
%TD*%
D17*
%TO.C,H4*%
X66769577Y-179470044D03*
X67362686Y-178038153D03*
X67362686Y-180901935D03*
X68794577Y-177445044D03*
D18*
X68794577Y-179470044D03*
D17*
X68794577Y-181495044D03*
X70226468Y-178038153D03*
X70226468Y-180901935D03*
X70819577Y-179470044D03*
%TD*%
D27*
%TO.C,C10*%
X121500000Y-165500000D03*
D22*
X121500000Y-167500000D03*
%TD*%
D28*
%TO.C,D6*%
X80561749Y-41574068D03*
D29*
X80561749Y-56814068D03*
%TD*%
D30*
%TO.C,C6*%
X114000000Y-166500000D03*
D22*
X116000000Y-166500000D03*
%TD*%
D10*
%TO.C,J1*%
X67375000Y-146150000D03*
D11*
X69915000Y-146150000D03*
X67375000Y-143610000D03*
X69915000Y-143610000D03*
X67375000Y-141070000D03*
X69915000Y-141070000D03*
X67375000Y-138530000D03*
X69915000Y-138530000D03*
X67375000Y-135990000D03*
X69915000Y-135990000D03*
X67375000Y-133450000D03*
X69915000Y-133450000D03*
X67375000Y-130910000D03*
X69915000Y-130910000D03*
%TD*%
D17*
%TO.C,H3*%
X129975000Y-28975000D03*
X130568109Y-27543109D03*
X130568109Y-30406891D03*
X132000000Y-26950000D03*
D18*
X132000000Y-28975000D03*
D17*
X132000000Y-31000000D03*
X133431891Y-27543109D03*
X133431891Y-30406891D03*
X134025000Y-28975000D03*
%TD*%
D31*
%TO.C,SW2*%
X93826655Y-95652186D03*
X100326655Y-95652186D03*
X93826655Y-100152186D03*
X100326655Y-100152186D03*
%TD*%
D10*
%TO.C,J8*%
X100904112Y-91862234D03*
D11*
X103444112Y-91862234D03*
X105984112Y-91862234D03*
%TD*%
D10*
%TO.C,JP2*%
X78000000Y-156540000D03*
D11*
X78000000Y-154000000D03*
%TD*%
D17*
%TO.C,H2*%
X129975000Y-179500000D03*
X130568109Y-178068109D03*
X130568109Y-180931891D03*
X132000000Y-177475000D03*
D18*
X132000000Y-179500000D03*
D17*
X132000000Y-181525000D03*
X133431891Y-178068109D03*
X133431891Y-180931891D03*
X134025000Y-179500000D03*
%TD*%
D25*
%TO.C,U7*%
X115300000Y-105000000D03*
D22*
X115300000Y-102460000D03*
X107680000Y-102460000D03*
X107680000Y-105000000D03*
%TD*%
D10*
%TO.C,JP1*%
X82568317Y-109805197D03*
D11*
X82568317Y-107265197D03*
%TD*%
D12*
%TO.C,J4*%
X127000000Y-72750000D03*
D13*
X127000000Y-69250000D03*
%TD*%
D25*
%TO.C,U8*%
X115300000Y-98275000D03*
D22*
X115300000Y-95735000D03*
X107680000Y-95735000D03*
X107680000Y-98275000D03*
%TD*%
D14*
%TO.C,LED_GREEN_F3_POWER1*%
X72325000Y-100250000D03*
D15*
X72325000Y-102790000D03*
%TD*%
D16*
%TO.C,J3*%
X74000000Y-109500000D03*
D13*
X74000000Y-113000000D03*
X74000000Y-116500000D03*
%TD*%
D32*
%TO.C,R20*%
X111150000Y-30000000D03*
X123850000Y-30000000D03*
%TD*%
D33*
%TO.C,F1*%
X67300000Y-45960000D03*
X70700000Y-45960000D03*
X67300000Y-36040000D03*
X70700000Y-36040000D03*
%TD*%
D31*
%TO.C,SW3*%
X100340898Y-116310752D03*
X93840898Y-116310752D03*
X100340898Y-111810752D03*
X93840898Y-111810752D03*
%TD*%
D34*
%TO.C,D2*%
X71000000Y-83420000D03*
D35*
X71000000Y-93580000D03*
%TD*%
D31*
%TO.C,SW1*%
X93826655Y-103652186D03*
X100326655Y-103652186D03*
X93826655Y-108152186D03*
X100326655Y-108152186D03*
%TD*%
D36*
%TO.C,D1*%
X90120000Y-35500000D03*
D29*
X74880000Y-35500000D03*
%TD*%
D12*
%TO.C,J5*%
X127000000Y-62000000D03*
D13*
X127000000Y-58500000D03*
X127000000Y-55000000D03*
%TD*%
M02*
